<?xml version="1.0" standalone="no"?>
<svg xmlns:xlink="http://www.w3.org/1999/xlink" id="wave" style="transform:rotate(180deg); transition: 0.3s" viewBox="0 0 1440 490" version="1.1" xmlns="http://www.w3.org/2000/svg"><defs><linearGradient id="sw-gradient-0" x1="0" x2="0" y1="1" y2="0"><stop stop-color="rgba(144, 232.564, 239, 1)" offset="0%"/><stop stop-color="rgba(202, 240, 248, 1)" offset="100%"/></linearGradient></defs><path style="transform:translate(0, 0px); opacity:1" fill="url(#sw-gradient-0)" d="M0,0L48,73.5C96,147,192,294,288,318.5C384,343,480,245,576,245C672,245,768,343,864,359.3C960,376,1056,310,1152,269.5C1248,229,1344,212,1440,212.3C1536,212,1632,229,1728,236.8C1824,245,1920,245,2016,261.3C2112,278,2208,310,2304,334.8C2400,359,2496,376,2592,318.5C2688,261,2784,131,2880,122.5C2976,114,3072,229,3168,277.7C3264,327,3360,310,3456,261.3C3552,212,3648,131,3744,122.5C3840,114,3936,180,4032,171.5C4128,163,4224,82,4320,65.3C4416,49,4512,98,4608,122.5C4704,147,4800,147,4896,147C4992,147,5088,147,5184,122.5C5280,98,5376,49,5472,24.5C5568,0,5664,0,5760,32.7C5856,65,5952,131,6048,196C6144,261,6240,327,6336,294C6432,261,6528,131,6624,114.3C6720,98,6816,196,6864,245L6912,294L6912,490L6864,490C6816,490,6720,490,6624,490C6528,490,6432,490,6336,490C6240,490,6144,490,6048,490C5952,490,5856,490,5760,490C5664,490,5568,490,5472,490C5376,490,5280,490,5184,490C5088,490,4992,490,4896,490C4800,490,4704,490,4608,490C4512,490,4416,490,4320,490C4224,490,4128,490,4032,490C3936,490,3840,490,3744,490C3648,490,3552,490,3456,490C3360,490,3264,490,3168,490C3072,490,2976,490,2880,490C2784,490,2688,490,2592,490C2496,490,2400,490,2304,490C2208,490,2112,490,2016,490C1920,490,1824,490,1728,490C1632,490,1536,490,1440,490C1344,490,1248,490,1152,490C1056,490,960,490,864,490C768,490,672,490,576,490C480,490,384,490,288,490C192,490,96,490,48,490L0,490Z"/><defs><linearGradient id="sw-gradient-1" x1="0" x2="0" y1="1" y2="0"><stop stop-color="rgba(0, 180, 216, 1)" offset="0%"/><stop stop-color="rgba(202, 240, 248, 1)" offset="100%"/></linearGradient></defs><path style="transform:translate(0, 50px); opacity:0.9" fill="url(#sw-gradient-1)" d="M0,441L48,375.7C96,310,192,180,288,138.8C384,98,480,147,576,155.2C672,163,768,131,864,155.2C960,180,1056,261,1152,318.5C1248,376,1344,408,1440,416.5C1536,425,1632,408,1728,408.3C1824,408,1920,425,2016,400.2C2112,376,2208,310,2304,277.7C2400,245,2496,245,2592,228.7C2688,212,2784,180,2880,155.2C2976,131,3072,114,3168,122.5C3264,131,3360,163,3456,212.3C3552,261,3648,327,3744,367.5C3840,408,3936,425,4032,424.7C4128,425,4224,408,4320,359.3C4416,310,4512,229,4608,204.2C4704,180,4800,212,4896,196C4992,180,5088,114,5184,138.8C5280,163,5376,278,5472,334.8C5568,392,5664,392,5760,359.3C5856,327,5952,261,6048,253.2C6144,245,6240,294,6336,269.5C6432,245,6528,147,6624,155.2C6720,163,6816,278,6864,334.8L6912,392L6912,490L6864,490C6816,490,6720,490,6624,490C6528,490,6432,490,6336,490C6240,490,6144,490,6048,490C5952,490,5856,490,5760,490C5664,490,5568,490,5472,490C5376,490,5280,490,5184,490C5088,490,4992,490,4896,490C4800,490,4704,490,4608,490C4512,490,4416,490,4320,490C4224,490,4128,490,4032,490C3936,490,3840,490,3744,490C3648,490,3552,490,3456,490C3360,490,3264,490,3168,490C3072,490,2976,490,2880,490C2784,490,2688,490,2592,490C2496,490,2400,490,2304,490C2208,490,2112,490,2016,490C1920,490,1824,490,1728,490C1632,490,1536,490,1440,490C1344,490,1248,490,1152,490C1056,490,960,490,864,490C768,490,672,490,576,490C480,490,384,490,288,490C192,490,96,490,48,490L0,490Z"/><defs><linearGradient id="sw-gradient-2" x1="0" x2="0" y1="1" y2="0"><stop stop-color="rgba(117.422, 233.277, 255, 1)" offset="0%"/><stop stop-color="rgba(0, 167.231, 200.677, 1)" offset="100%"/></linearGradient></defs><path style="transform:translate(0, 100px); opacity:0.8" fill="url(#sw-gradient-2)" d="M0,245L48,236.8C96,229,192,212,288,179.7C384,147,480,98,576,98C672,98,768,147,864,204.2C960,261,1056,327,1152,343C1248,359,1344,327,1440,326.7C1536,327,1632,359,1728,359.3C1824,359,1920,327,2016,302.2C2112,278,2208,261,2304,245C2400,229,2496,212,2592,212.3C2688,212,2784,229,2880,212.3C2976,196,3072,147,3168,147C3264,147,3360,196,3456,220.5C3552,245,3648,245,3744,204.2C3840,163,3936,82,4032,65.3C4128,49,4224,98,4320,106.2C4416,114,4512,82,4608,114.3C4704,147,4800,245,4896,236.8C4992,229,5088,114,5184,122.5C5280,131,5376,261,5472,277.7C5568,294,5664,196,5760,163.3C5856,131,5952,163,6048,155.2C6144,147,6240,98,6336,98C6432,98,6528,147,6624,196C6720,245,6816,294,6864,318.5L6912,343L6912,490L6864,490C6816,490,6720,490,6624,490C6528,490,6432,490,6336,490C6240,490,6144,490,6048,490C5952,490,5856,490,5760,490C5664,490,5568,490,5472,490C5376,490,5280,490,5184,490C5088,490,4992,490,4896,490C4800,490,4704,490,4608,490C4512,490,4416,490,4320,490C4224,490,4128,490,4032,490C3936,490,3840,490,3744,490C3648,490,3552,490,3456,490C3360,490,3264,490,3168,490C3072,490,2976,490,2880,490C2784,490,2688,490,2592,490C2496,490,2400,490,2304,490C2208,490,2112,490,2016,490C1920,490,1824,490,1728,490C1632,490,1536,490,1440,490C1344,490,1248,490,1152,490C1056,490,960,490,864,490C768,490,672,490,576,490C480,490,384,490,288,490C192,490,96,490,48,490L0,490Z"/></svg>