<?xml version="1.0" standalone="no"?>
<svg xmlns:xlink="http://www.w3.org/1999/xlink" id="wave" style="transform:rotate(180deg); transition: 0.3s" viewBox="0 0 1440 220" version="1.1" xmlns="http://www.w3.org/2000/svg"><defs><linearGradient id="sw-gradient-0" x1="0" x2="0" y1="1" y2="0"><stop stop-color="rgba(144, 232.564, 239, 1)" offset="0%"/><stop stop-color="rgba(202, 240, 248, 1)" offset="100%"/></linearGradient></defs><path style="transform:translate(0, 0px); opacity:1" fill="url(#sw-gradient-0)" d="M0,0L120,33C240,66,480,132,720,143C960,154,1200,110,1440,110C1680,110,1920,154,2160,161.3C2400,169,2640,139,2880,121C3120,103,3360,95,3600,95.3C3840,95,4080,103,4320,106.3C4560,110,4800,110,5040,117.3C5280,125,5520,139,5760,150.3C6000,161,6240,169,6480,143C6720,117,6960,59,7200,55C7440,51,7680,103,7920,124.7C8160,147,8400,139,8640,117.3C8880,95,9120,59,9360,55C9600,51,9840,81,10080,77C10320,73,10560,37,10800,29.3C11040,22,11280,44,11520,55C11760,66,12000,66,12240,66C12480,66,12720,66,12960,55C13200,44,13440,22,13680,11C13920,0,14160,0,14400,14.7C14640,29,14880,59,15120,88C15360,117,15600,147,15840,132C16080,117,16320,59,16560,51.3C16800,44,17040,88,17160,110L17280,132L17280,220L17160,220C17040,220,16800,220,16560,220C16320,220,16080,220,15840,220C15600,220,15360,220,15120,220C14880,220,14640,220,14400,220C14160,220,13920,220,13680,220C13440,220,13200,220,12960,220C12720,220,12480,220,12240,220C12000,220,11760,220,11520,220C11280,220,11040,220,10800,220C10560,220,10320,220,10080,220C9840,220,9600,220,9360,220C9120,220,8880,220,8640,220C8400,220,8160,220,7920,220C7680,220,7440,220,7200,220C6960,220,6720,220,6480,220C6240,220,6000,220,5760,220C5520,220,5280,220,5040,220C4800,220,4560,220,4320,220C4080,220,3840,220,3600,220C3360,220,3120,220,2880,220C2640,220,2400,220,2160,220C1920,220,1680,220,1440,220C1200,220,960,220,720,220C480,220,240,220,120,220L0,220Z"/><defs><linearGradient id="sw-gradient-1" x1="0" x2="0" y1="1" y2="0"><stop stop-color="rgba(0, 180, 216, 1)" offset="0%"/><stop stop-color="rgba(202, 240, 248, 1)" offset="100%"/></linearGradient></defs><path style="transform:translate(0, 50px); opacity:0.9" fill="url(#sw-gradient-1)" d="M0,198L120,168.7C240,139,480,81,720,62.3C960,44,1200,66,1440,69.7C1680,73,1920,59,2160,69.7C2400,81,2640,117,2880,143C3120,169,3360,183,3600,187C3840,191,4080,183,4320,183.3C4560,183,4800,191,5040,179.7C5280,169,5520,139,5760,124.7C6000,110,6240,110,6480,102.7C6720,95,6960,81,7200,69.7C7440,59,7680,51,7920,55C8160,59,8400,73,8640,95.3C8880,117,9120,147,9360,165C9600,183,9840,191,10080,190.7C10320,191,10560,183,10800,161.3C11040,139,11280,103,11520,91.7C11760,81,12000,95,12240,88C12480,81,12720,51,12960,62.3C13200,73,13440,125,13680,150.3C13920,176,14160,176,14400,161.3C14640,147,14880,117,15120,113.7C15360,110,15600,132,15840,121C16080,110,16320,66,16560,69.7C16800,73,17040,125,17160,150.3L17280,176L17280,220L17160,220C17040,220,16800,220,16560,220C16320,220,16080,220,15840,220C15600,220,15360,220,15120,220C14880,220,14640,220,14400,220C14160,220,13920,220,13680,220C13440,220,13200,220,12960,220C12720,220,12480,220,12240,220C12000,220,11760,220,11520,220C11280,220,11040,220,10800,220C10560,220,10320,220,10080,220C9840,220,9600,220,9360,220C9120,220,8880,220,8640,220C8400,220,8160,220,7920,220C7680,220,7440,220,7200,220C6960,220,6720,220,6480,220C6240,220,6000,220,5760,220C5520,220,5280,220,5040,220C4800,220,4560,220,4320,220C4080,220,3840,220,3600,220C3360,220,3120,220,2880,220C2640,220,2400,220,2160,220C1920,220,1680,220,1440,220C1200,220,960,220,720,220C480,220,240,220,120,220L0,220Z"/><defs><linearGradient id="sw-gradient-2" x1="0" x2="0" y1="1" y2="0"><stop stop-color="rgba(117.422, 233.277, 255, 1)" offset="0%"/><stop stop-color="rgba(0, 167.231, 200.677, 1)" offset="100%"/></linearGradient></defs><path style="transform:translate(0, 100px); opacity:0.8" fill="url(#sw-gradient-2)" d="M0,110L120,106.3C240,103,480,95,720,80.7C960,66,1200,44,1440,44C1680,44,1920,66,2160,91.7C2400,117,2640,147,2880,154C3120,161,3360,147,3600,146.7C3840,147,4080,161,4320,161.3C4560,161,4800,147,5040,135.7C5280,125,5520,117,5760,110C6000,103,6240,95,6480,95.3C6720,95,6960,103,7200,95.3C7440,88,7680,66,7920,66C8160,66,8400,88,8640,99C8880,110,9120,110,9360,91.7C9600,73,9840,37,10080,29.3C10320,22,10560,44,10800,47.7C11040,51,11280,37,11520,51.3C11760,66,12000,110,12240,106.3C12480,103,12720,51,12960,55C13200,59,13440,117,13680,124.7C13920,132,14160,88,14400,73.3C14640,59,14880,73,15120,69.7C15360,66,15600,44,15840,44C16080,44,16320,66,16560,88C16800,110,17040,132,17160,143L17280,154L17280,220L17160,220C17040,220,16800,220,16560,220C16320,220,16080,220,15840,220C15600,220,15360,220,15120,220C14880,220,14640,220,14400,220C14160,220,13920,220,13680,220C13440,220,13200,220,12960,220C12720,220,12480,220,12240,220C12000,220,11760,220,11520,220C11280,220,11040,220,10800,220C10560,220,10320,220,10080,220C9840,220,9600,220,9360,220C9120,220,8880,220,8640,220C8400,220,8160,220,7920,220C7680,220,7440,220,7200,220C6960,220,6720,220,6480,220C6240,220,6000,220,5760,220C5520,220,5280,220,5040,220C4800,220,4560,220,4320,220C4080,220,3840,220,3600,220C3360,220,3120,220,2880,220C2640,220,2400,220,2160,220C1920,220,1680,220,1440,220C1200,220,960,220,720,220C480,220,240,220,120,220L0,220Z"/></svg>