<?xml version="1.0" standalone="no"?>
<svg xmlns:xlink="http://www.w3.org/1999/xlink" id="wave" style="transform:rotate(0deg); transition: 0.3s" viewBox="0 0 1440 370" version="1.1" xmlns="http://www.w3.org/2000/svg"><defs><linearGradient id="sw-gradient-0" x1="0" x2="0" y1="1" y2="0"><stop stop-color="rgba(144, 232.564, 239, 1)" offset="0%"/><stop stop-color="rgba(202, 240, 248, 1)" offset="100%"/></linearGradient></defs><path style="transform:translate(0, 0px); opacity:1" fill="url(#sw-gradient-0)" d="M0,0L48,55.5C96,111,192,222,288,240.5C384,259,480,185,576,185C672,185,768,259,864,271.3C960,284,1056,234,1152,203.5C1248,173,1344,160,1440,160.3C1536,160,1632,173,1728,178.8C1824,185,1920,185,2016,197.3C2112,210,2208,234,2304,252.8C2400,271,2496,284,2592,240.5C2688,197,2784,99,2880,92.5C2976,86,3072,173,3168,209.7C3264,247,3360,234,3456,197.3C3552,160,3648,99,3744,92.5C3840,86,3936,136,4032,129.5C4128,123,4224,62,4320,49.3C4416,37,4512,74,4608,92.5C4704,111,4800,111,4896,111C4992,111,5088,111,5184,92.5C5280,74,5376,37,5472,18.5C5568,0,5664,0,5760,24.7C5856,49,5952,99,6048,148C6144,197,6240,247,6336,222C6432,197,6528,99,6624,86.3C6720,74,6816,148,6864,185L6912,222L6912,370L6864,370C6816,370,6720,370,6624,370C6528,370,6432,370,6336,370C6240,370,6144,370,6048,370C5952,370,5856,370,5760,370C5664,370,5568,370,5472,370C5376,370,5280,370,5184,370C5088,370,4992,370,4896,370C4800,370,4704,370,4608,370C4512,370,4416,370,4320,370C4224,370,4128,370,4032,370C3936,370,3840,370,3744,370C3648,370,3552,370,3456,370C3360,370,3264,370,3168,370C3072,370,2976,370,2880,370C2784,370,2688,370,2592,370C2496,370,2400,370,2304,370C2208,370,2112,370,2016,370C1920,370,1824,370,1728,370C1632,370,1536,370,1440,370C1344,370,1248,370,1152,370C1056,370,960,370,864,370C768,370,672,370,576,370C480,370,384,370,288,370C192,370,96,370,48,370L0,370Z"/><defs><linearGradient id="sw-gradient-1" x1="0" x2="0" y1="1" y2="0"><stop stop-color="rgba(0, 180, 216, 1)" offset="0%"/><stop stop-color="rgba(202, 240, 248, 1)" offset="100%"/></linearGradient></defs><path style="transform:translate(0, 50px); opacity:0.9" fill="url(#sw-gradient-1)" d="M0,333L48,283.7C96,234,192,136,288,104.8C384,74,480,111,576,117.2C672,123,768,99,864,117.2C960,136,1056,197,1152,240.5C1248,284,1344,308,1440,314.5C1536,321,1632,308,1728,308.3C1824,308,1920,321,2016,302.2C2112,284,2208,234,2304,209.7C2400,185,2496,185,2592,172.7C2688,160,2784,136,2880,117.2C2976,99,3072,86,3168,92.5C3264,99,3360,123,3456,160.3C3552,197,3648,247,3744,277.5C3840,308,3936,321,4032,320.7C4128,321,4224,308,4320,271.3C4416,234,4512,173,4608,154.2C4704,136,4800,160,4896,148C4992,136,5088,86,5184,104.8C5280,123,5376,210,5472,252.8C5568,296,5664,296,5760,271.3C5856,247,5952,197,6048,191.2C6144,185,6240,222,6336,203.5C6432,185,6528,111,6624,117.2C6720,123,6816,210,6864,252.8L6912,296L6912,370L6864,370C6816,370,6720,370,6624,370C6528,370,6432,370,6336,370C6240,370,6144,370,6048,370C5952,370,5856,370,5760,370C5664,370,5568,370,5472,370C5376,370,5280,370,5184,370C5088,370,4992,370,4896,370C4800,370,4704,370,4608,370C4512,370,4416,370,4320,370C4224,370,4128,370,4032,370C3936,370,3840,370,3744,370C3648,370,3552,370,3456,370C3360,370,3264,370,3168,370C3072,370,2976,370,2880,370C2784,370,2688,370,2592,370C2496,370,2400,370,2304,370C2208,370,2112,370,2016,370C1920,370,1824,370,1728,370C1632,370,1536,370,1440,370C1344,370,1248,370,1152,370C1056,370,960,370,864,370C768,370,672,370,576,370C480,370,384,370,288,370C192,370,96,370,48,370L0,370Z"/><defs><linearGradient id="sw-gradient-2" x1="0" x2="0" y1="1" y2="0"><stop stop-color="rgba(117.422, 233.277, 255, 1)" offset="0%"/><stop stop-color="rgba(0, 167.231, 200.677, 1)" offset="100%"/></linearGradient></defs><path style="transform:translate(0, 100px); opacity:0.8" fill="url(#sw-gradient-2)" d="M0,185L48,178.8C96,173,192,160,288,135.7C384,111,480,74,576,74C672,74,768,111,864,154.2C960,197,1056,247,1152,259C1248,271,1344,247,1440,246.7C1536,247,1632,271,1728,271.3C1824,271,1920,247,2016,228.2C2112,210,2208,197,2304,185C2400,173,2496,160,2592,160.3C2688,160,2784,173,2880,160.3C2976,148,3072,111,3168,111C3264,111,3360,148,3456,166.5C3552,185,3648,185,3744,154.2C3840,123,3936,62,4032,49.3C4128,37,4224,74,4320,80.2C4416,86,4512,62,4608,86.3C4704,111,4800,185,4896,178.8C4992,173,5088,86,5184,92.5C5280,99,5376,197,5472,209.7C5568,222,5664,148,5760,123.3C5856,99,5952,123,6048,117.2C6144,111,6240,74,6336,74C6432,74,6528,111,6624,148C6720,185,6816,222,6864,240.5L6912,259L6912,370L6864,370C6816,370,6720,370,6624,370C6528,370,6432,370,6336,370C6240,370,6144,370,6048,370C5952,370,5856,370,5760,370C5664,370,5568,370,5472,370C5376,370,5280,370,5184,370C5088,370,4992,370,4896,370C4800,370,4704,370,4608,370C4512,370,4416,370,4320,370C4224,370,4128,370,4032,370C3936,370,3840,370,3744,370C3648,370,3552,370,3456,370C3360,370,3264,370,3168,370C3072,370,2976,370,2880,370C2784,370,2688,370,2592,370C2496,370,2400,370,2304,370C2208,370,2112,370,2016,370C1920,370,1824,370,1728,370C1632,370,1536,370,1440,370C1344,370,1248,370,1152,370C1056,370,960,370,864,370C768,370,672,370,576,370C480,370,384,370,288,370C192,370,96,370,48,370L0,370Z"/></svg>