<?xml version="1.0" standalone="no"?>
<svg xmlns:xlink="http://www.w3.org/1999/xlink" id="wave" style="transform:rotate(180deg); transition: 0.3s" viewBox="0 0 1440 340" version="1.1" xmlns="http://www.w3.org/2000/svg"><defs><linearGradient id="sw-gradient-0" x1="0" x2="0" y1="1" y2="0"><stop stop-color="rgba(144, 232.564, 239, 1)" offset="0%"/><stop stop-color="rgba(202, 240, 248, 1)" offset="100%"/></linearGradient></defs><path style="transform:translate(0, 0px); opacity:1" fill="url(#sw-gradient-0)" d="M0,0L60,51C120,102,240,204,360,221C480,238,600,170,720,170C840,170,960,238,1080,249.3C1200,261,1320,215,1440,187C1560,159,1680,147,1800,147.3C1920,147,2040,159,2160,164.3C2280,170,2400,170,2520,181.3C2640,193,2760,215,2880,232.3C3000,249,3120,261,3240,221C3360,181,3480,91,3600,85C3720,79,3840,159,3960,192.7C4080,227,4200,215,4320,181.3C4440,147,4560,91,4680,85C4800,79,4920,125,5040,119C5160,113,5280,57,5400,45.3C5520,34,5640,68,5760,85C5880,102,6000,102,6120,102C6240,102,6360,102,6480,85C6600,68,6720,34,6840,17C6960,0,7080,0,7200,22.7C7320,45,7440,91,7560,136C7680,181,7800,227,7920,204C8040,181,8160,91,8280,79.3C8400,68,8520,136,8580,170L8640,204L8640,340L8580,340C8520,340,8400,340,8280,340C8160,340,8040,340,7920,340C7800,340,7680,340,7560,340C7440,340,7320,340,7200,340C7080,340,6960,340,6840,340C6720,340,6600,340,6480,340C6360,340,6240,340,6120,340C6000,340,5880,340,5760,340C5640,340,5520,340,5400,340C5280,340,5160,340,5040,340C4920,340,4800,340,4680,340C4560,340,4440,340,4320,340C4200,340,4080,340,3960,340C3840,340,3720,340,3600,340C3480,340,3360,340,3240,340C3120,340,3000,340,2880,340C2760,340,2640,340,2520,340C2400,340,2280,340,2160,340C2040,340,1920,340,1800,340C1680,340,1560,340,1440,340C1320,340,1200,340,1080,340C960,340,840,340,720,340C600,340,480,340,360,340C240,340,120,340,60,340L0,340Z"/><defs><linearGradient id="sw-gradient-1" x1="0" x2="0" y1="1" y2="0"><stop stop-color="rgba(0, 180, 216, 1)" offset="0%"/><stop stop-color="rgba(202, 240, 248, 1)" offset="100%"/></linearGradient></defs><path style="transform:translate(0, 50px); opacity:0.9" fill="url(#sw-gradient-1)" d="M0,306L60,260.7C120,215,240,125,360,96.3C480,68,600,102,720,107.7C840,113,960,91,1080,107.7C1200,125,1320,181,1440,221C1560,261,1680,283,1800,289C1920,295,2040,283,2160,283.3C2280,283,2400,295,2520,277.7C2640,261,2760,215,2880,192.7C3000,170,3120,170,3240,158.7C3360,147,3480,125,3600,107.7C3720,91,3840,79,3960,85C4080,91,4200,113,4320,147.3C4440,181,4560,227,4680,255C4800,283,4920,295,5040,294.7C5160,295,5280,283,5400,249.3C5520,215,5640,159,5760,141.7C5880,125,6000,147,6120,136C6240,125,6360,79,6480,96.3C6600,113,6720,193,6840,232.3C6960,272,7080,272,7200,249.3C7320,227,7440,181,7560,175.7C7680,170,7800,204,7920,187C8040,170,8160,102,8280,107.7C8400,113,8520,193,8580,232.3L8640,272L8640,340L8580,340C8520,340,8400,340,8280,340C8160,340,8040,340,7920,340C7800,340,7680,340,7560,340C7440,340,7320,340,7200,340C7080,340,6960,340,6840,340C6720,340,6600,340,6480,340C6360,340,6240,340,6120,340C6000,340,5880,340,5760,340C5640,340,5520,340,5400,340C5280,340,5160,340,5040,340C4920,340,4800,340,4680,340C4560,340,4440,340,4320,340C4200,340,4080,340,3960,340C3840,340,3720,340,3600,340C3480,340,3360,340,3240,340C3120,340,3000,340,2880,340C2760,340,2640,340,2520,340C2400,340,2280,340,2160,340C2040,340,1920,340,1800,340C1680,340,1560,340,1440,340C1320,340,1200,340,1080,340C960,340,840,340,720,340C600,340,480,340,360,340C240,340,120,340,60,340L0,340Z"/><defs><linearGradient id="sw-gradient-2" x1="0" x2="0" y1="1" y2="0"><stop stop-color="rgba(117.422, 233.277, 255, 1)" offset="0%"/><stop stop-color="rgba(0, 167.231, 200.677, 1)" offset="100%"/></linearGradient></defs><path style="transform:translate(0, 100px); opacity:0.8" fill="url(#sw-gradient-2)" d="M0,170L60,164.3C120,159,240,147,360,124.7C480,102,600,68,720,68C840,68,960,102,1080,141.7C1200,181,1320,227,1440,238C1560,249,1680,227,1800,226.7C1920,227,2040,249,2160,249.3C2280,249,2400,227,2520,209.7C2640,193,2760,181,2880,170C3000,159,3120,147,3240,147.3C3360,147,3480,159,3600,147.3C3720,136,3840,102,3960,102C4080,102,4200,136,4320,153C4440,170,4560,170,4680,141.7C4800,113,4920,57,5040,45.3C5160,34,5280,68,5400,73.7C5520,79,5640,57,5760,79.3C5880,102,6000,170,6120,164.3C6240,159,6360,79,6480,85C6600,91,6720,181,6840,192.7C6960,204,7080,136,7200,113.3C7320,91,7440,113,7560,107.7C7680,102,7800,68,7920,68C8040,68,8160,102,8280,136C8400,170,8520,204,8580,221L8640,238L8640,340L8580,340C8520,340,8400,340,8280,340C8160,340,8040,340,7920,340C7800,340,7680,340,7560,340C7440,340,7320,340,7200,340C7080,340,6960,340,6840,340C6720,340,6600,340,6480,340C6360,340,6240,340,6120,340C6000,340,5880,340,5760,340C5640,340,5520,340,5400,340C5280,340,5160,340,5040,340C4920,340,4800,340,4680,340C4560,340,4440,340,4320,340C4200,340,4080,340,3960,340C3840,340,3720,340,3600,340C3480,340,3360,340,3240,340C3120,340,3000,340,2880,340C2760,340,2640,340,2520,340C2400,340,2280,340,2160,340C2040,340,1920,340,1800,340C1680,340,1560,340,1440,340C1320,340,1200,340,1080,340C960,340,840,340,720,340C600,340,480,340,360,340C240,340,120,340,60,340L0,340Z"/></svg>