<?xml version="1.0" standalone="no"?>
<svg xmlns:xlink="http://www.w3.org/1999/xlink" id="wave" style="transform:rotate(180deg); transition: 0.3s" viewBox="0 0 1440 340" version="1.1" xmlns="http://www.w3.org/2000/svg"><defs><linearGradient id="sw-gradient-0" x1="0" x2="0" y1="1" y2="0"><stop stop-color="rgba(243, 106, 62, 1)" offset="0%"/><stop stop-color="rgba(255, 179, 11, 1)" offset="100%"/></linearGradient></defs><path style="transform:translate(0, 0px); opacity:1" fill="url(#sw-gradient-0)" d="M0,306L48,306C96,306,192,306,288,260.7C384,215,480,125,576,113.3C672,102,768,170,864,209.7C960,249,1056,261,1152,221C1248,181,1344,91,1440,85C1536,79,1632,159,1728,181.3C1824,204,1920,170,2016,170C2112,170,2208,204,2304,232.3C2400,261,2496,283,2592,277.7C2688,272,2784,238,2880,238C2976,238,3072,272,3168,260.7C3264,249,3360,193,3456,164.3C3552,136,3648,136,3744,124.7C3840,113,3936,91,4032,119C4128,147,4224,227,4320,238C4416,249,4512,193,4608,153C4704,113,4800,91,4896,79.3C4992,68,5088,68,5184,73.7C5280,79,5376,91,5472,107.7C5568,125,5664,147,5760,170C5856,193,5952,215,6048,192.7C6144,170,6240,102,6336,73.7C6432,45,6528,57,6624,102C6720,147,6816,227,6864,266.3L6912,306L6912,340L6864,340C6816,340,6720,340,6624,340C6528,340,6432,340,6336,340C6240,340,6144,340,6048,340C5952,340,5856,340,5760,340C5664,340,5568,340,5472,340C5376,340,5280,340,5184,340C5088,340,4992,340,4896,340C4800,340,4704,340,4608,340C4512,340,4416,340,4320,340C4224,340,4128,340,4032,340C3936,340,3840,340,3744,340C3648,340,3552,340,3456,340C3360,340,3264,340,3168,340C3072,340,2976,340,2880,340C2784,340,2688,340,2592,340C2496,340,2400,340,2304,340C2208,340,2112,340,2016,340C1920,340,1824,340,1728,340C1632,340,1536,340,1440,340C1344,340,1248,340,1152,340C1056,340,960,340,864,340C768,340,672,340,576,340C480,340,384,340,288,340C192,340,96,340,48,340L0,340Z"/><defs><linearGradient id="sw-gradient-1" x1="0" x2="0" y1="1" y2="0"><stop stop-color="rgba(243, 106, 62, 1)" offset="0%"/><stop stop-color="rgba(255, 239.379, 19.525, 1)" offset="100%"/></linearGradient></defs><path style="transform:translate(0, 50px); opacity:0.9" fill="url(#sw-gradient-1)" d="M0,34L48,28.3C96,23,192,11,288,34C384,57,480,113,576,147.3C672,181,768,193,864,204C960,215,1056,227,1152,221C1248,215,1344,193,1440,158.7C1536,125,1632,79,1728,102C1824,125,1920,215,2016,215.3C2112,215,2208,125,2304,90.7C2400,57,2496,79,2592,96.3C2688,113,2784,125,2880,153C2976,181,3072,227,3168,232.3C3264,238,3360,204,3456,175.7C3552,147,3648,125,3744,119C3840,113,3936,125,4032,158.7C4128,193,4224,249,4320,272C4416,295,4512,283,4608,243.7C4704,204,4800,136,4896,102C4992,68,5088,68,5184,102C5280,136,5376,204,5472,215.3C5568,227,5664,181,5760,187C5856,193,5952,249,6048,243.7C6144,238,6240,170,6336,119C6432,68,6528,34,6624,22.7C6720,11,6816,23,6864,28.3L6912,34L6912,340L6864,340C6816,340,6720,340,6624,340C6528,340,6432,340,6336,340C6240,340,6144,340,6048,340C5952,340,5856,340,5760,340C5664,340,5568,340,5472,340C5376,340,5280,340,5184,340C5088,340,4992,340,4896,340C4800,340,4704,340,4608,340C4512,340,4416,340,4320,340C4224,340,4128,340,4032,340C3936,340,3840,340,3744,340C3648,340,3552,340,3456,340C3360,340,3264,340,3168,340C3072,340,2976,340,2880,340C2784,340,2688,340,2592,340C2496,340,2400,340,2304,340C2208,340,2112,340,2016,340C1920,340,1824,340,1728,340C1632,340,1536,340,1440,340C1344,340,1248,340,1152,340C1056,340,960,340,864,340C768,340,672,340,576,340C480,340,384,340,288,340C192,340,96,340,48,340L0,340Z"/></svg>