<?xml version="1.0" standalone="no"?>
<svg xmlns:xlink="http://www.w3.org/1999/xlink" id="wave" style="transform:rotate(180deg); transition: 0.3s" viewBox="0 0 1440 160" version="1.1" xmlns="http://www.w3.org/2000/svg"><defs><linearGradient id="sw-gradient-0" x1="0" x2="0" y1="1" y2="0"><stop stop-color="rgba(243, 106, 62, 1)" offset="0%"/><stop stop-color="rgba(255, 179, 11, 1)" offset="100%"/></linearGradient></defs><path style="transform:translate(0, 0px); opacity:1" fill="url(#sw-gradient-0)" d="M0,144L34.3,144C68.6,144,137,144,206,122.7C274.3,101,343,59,411,53.3C480,48,549,80,617,98.7C685.7,117,754,123,823,104C891.4,85,960,43,1029,40C1097.1,37,1166,75,1234,85.3C1302.9,96,1371,80,1440,80C1508.6,80,1577,96,1646,109.3C1714.3,123,1783,133,1851,130.7C1920,128,1989,112,2057,112C2125.7,112,2194,128,2263,122.7C2331.4,117,2400,91,2469,77.3C2537.1,64,2606,64,2674,58.7C2742.9,53,2811,43,2880,56C2948.6,69,3017,107,3086,112C3154.3,117,3223,91,3291,72C3360,53,3429,43,3497,37.3C3565.7,32,3634,32,3703,34.7C3771.4,37,3840,43,3909,50.7C3977.1,59,4046,69,4114,80C4182.9,91,4251,101,4320,90.7C4388.6,80,4457,48,4526,34.7C4594.3,21,4663,27,4731,48C4800,69,4869,107,4903,125.3L4937.1,144L4937.1,160L4902.9,160C4868.6,160,4800,160,4731,160C4662.9,160,4594,160,4526,160C4457.1,160,4389,160,4320,160C4251.4,160,4183,160,4114,160C4045.7,160,3977,160,3909,160C3840,160,3771,160,3703,160C3634.3,160,3566,160,3497,160C3428.6,160,3360,160,3291,160C3222.9,160,3154,160,3086,160C3017.1,160,2949,160,2880,160C2811.4,160,2743,160,2674,160C2605.7,160,2537,160,2469,160C2400,160,2331,160,2263,160C2194.3,160,2126,160,2057,160C1988.6,160,1920,160,1851,160C1782.9,160,1714,160,1646,160C1577.1,160,1509,160,1440,160C1371.4,160,1303,160,1234,160C1165.7,160,1097,160,1029,160C960,160,891,160,823,160C754.3,160,686,160,617,160C548.6,160,480,160,411,160C342.9,160,274,160,206,160C137.1,160,69,160,34,160L0,160Z"/><defs><linearGradient id="sw-gradient-1" x1="0" x2="0" y1="1" y2="0"><stop stop-color="rgba(243, 106, 62, 1)" offset="0%"/><stop stop-color="rgba(255, 239.379, 19.525, 1)" offset="100%"/></linearGradient></defs><path style="transform:translate(0, 50px); opacity:0.9" fill="url(#sw-gradient-1)" d="M0,16L34.3,13.3C68.6,11,137,5,206,16C274.3,27,343,53,411,69.3C480,85,549,91,617,96C685.7,101,754,107,823,104C891.4,101,960,91,1029,74.7C1097.1,59,1166,37,1234,48C1302.9,59,1371,101,1440,101.3C1508.6,101,1577,59,1646,42.7C1714.3,27,1783,37,1851,45.3C1920,53,1989,59,2057,72C2125.7,85,2194,107,2263,109.3C2331.4,112,2400,96,2469,82.7C2537.1,69,2606,59,2674,56C2742.9,53,2811,59,2880,74.7C2948.6,91,3017,117,3086,128C3154.3,139,3223,133,3291,114.7C3360,96,3429,64,3497,48C3565.7,32,3634,32,3703,48C3771.4,64,3840,96,3909,101.3C3977.1,107,4046,85,4114,88C4182.9,91,4251,117,4320,114.7C4388.6,112,4457,80,4526,56C4594.3,32,4663,16,4731,10.7C4800,5,4869,11,4903,13.3L4937.1,16L4937.1,160L4902.9,160C4868.6,160,4800,160,4731,160C4662.9,160,4594,160,4526,160C4457.1,160,4389,160,4320,160C4251.4,160,4183,160,4114,160C4045.7,160,3977,160,3909,160C3840,160,3771,160,3703,160C3634.3,160,3566,160,3497,160C3428.6,160,3360,160,3291,160C3222.9,160,3154,160,3086,160C3017.1,160,2949,160,2880,160C2811.4,160,2743,160,2674,160C2605.7,160,2537,160,2469,160C2400,160,2331,160,2263,160C2194.3,160,2126,160,2057,160C1988.6,160,1920,160,1851,160C1782.9,160,1714,160,1646,160C1577.1,160,1509,160,1440,160C1371.4,160,1303,160,1234,160C1165.7,160,1097,160,1029,160C960,160,891,160,823,160C754.3,160,686,160,617,160C548.6,160,480,160,411,160C342.9,160,274,160,206,160C137.1,160,69,160,34,160L0,160Z"/></svg>